HIERARCHY
ROOT Hips
{
	OFFSET 0.00000 0.00000 0.00000
	CHANNELS 6 Xposition Yposition Zposition Zrotation Yrotation Xrotation 
	JOINT LHipJoint
	{
		OFFSET 0 0 0
		CHANNELS 3 Zrotation Yrotation Xrotation
		JOINT LeftUpLeg
		{
			OFFSET 1.75344 -1.53157 0.77399
			CHANNELS 3 Zrotation Yrotation Xrotation
			JOINT LeftLeg
			{
				OFFSET 2.25415 -6.19323 0.00000
				CHANNELS 3 Zrotation Yrotation Xrotation
				JOINT LeftFoot
				{
					OFFSET 2.30342 -6.32861 0.00000
					CHANNELS 3 Zrotation Yrotation Xrotation
					JOINT LeftToeBase
					{
						OFFSET 0.10958 -0.30108 1.49206
						CHANNELS 3 Zrotation Yrotation Xrotation
						End Site
						{
							OFFSET 0.00000 -0.00000 0.77783
						}
					}
				}
			}
		}
	}
	JOINT RHipJoint
	{
		OFFSET 0 0 0
		CHANNELS 3 Zrotation Yrotation Xrotation
		JOINT RightUpLeg
		{
			OFFSET -1.81912 -1.53156 0.77399
			CHANNELS 3 Zrotation Yrotation Xrotation
			JOINT RightLeg
			{
				OFFSET -2.22882 -6.12365 0.00000
				CHANNELS 3 Zrotation Yrotation Xrotation
				JOINT RightFoot
				{
					OFFSET -2.21943 -6.09785 0.00000
					CHANNELS 3 Zrotation Yrotation Xrotation
					JOINT RightToeBase
					{
						OFFSET -0.18931 -0.52012 1.59379
						CHANNELS 3 Zrotation Yrotation Xrotation
						End Site
						{
							OFFSET -0.00000 -0.00000 0.84686
						}
					}
				}
			}
		}
	}
	JOINT LowerBack
	{
		OFFSET 0 0 0
		CHANNELS 3 Zrotation Yrotation Xrotation
		JOINT Spine
		{
			OFFSET -0.00200 1.66634 -0.14248
			CHANNELS 3 Zrotation Yrotation Xrotation
			JOINT Spine1
			{
				OFFSET -0.00875 1.64542 0.09514
				CHANNELS 3 Zrotation Yrotation Xrotation
				JOINT Neck
				{
					OFFSET 0 0 0
					CHANNELS 3 Zrotation Yrotation Xrotation
					JOINT Neck1
					{
						OFFSET 0.02257 1.59605 0.00839
						CHANNELS 3 Zrotation Yrotation Xrotation
						JOINT Head
						{
							OFFSET -0.10214 1.57530 -0.23335
							CHANNELS 3 Zrotation Yrotation Xrotation
							End Site
							{
								OFFSET -0.03588 1.60717 -0.08062
							}
						}
					}
				}
				JOINT LeftShoulder
				{
					OFFSET 0 0 0
					CHANNELS 3 Zrotation Yrotation Xrotation
					JOINT LeftArm
					{
						OFFSET 2.54983 1.10186 0.40078
						CHANNELS 3 Zrotation Yrotation Xrotation
						JOINT LeftForeArm
						{
							OFFSET 4.28840 -0.00000 0.00000
							CHANNELS 3 Zrotation Yrotation Xrotation
							JOINT LeftHand
							{
								OFFSET 3.06552 -0.00000 -0.00000
								CHANNELS 3 Zrotation Yrotation Xrotation
								JOINT LeftFingerBase
								{
									OFFSET 0 0 0
									CHANNELS 3 Zrotation Yrotation Xrotation
									JOINT LeftHandIndex1
									{
										OFFSET 0.75304 -0.00000 0.00000
										CHANNELS 3 Zrotation Yrotation Xrotation
										End Site
										{
											OFFSET 0.60712 -0.00000 0.00000
										}
									}
								}
								JOINT LThumb
								{
									OFFSET 0 0 0
									CHANNELS 3 Zrotation Yrotation Xrotation
									End Site
									{
										OFFSET 0.61639 -0.00000 0.61639
									}
								}
							}
						}
					}
				}
				JOINT RightShoulder
				{
					OFFSET 0 0 0
					CHANNELS 3 Zrotation Yrotation Xrotation
					JOINT RightArm
					{
						OFFSET -2.60909 1.35448 0.21802
						CHANNELS 3 Zrotation Yrotation Xrotation
						JOINT RightForeArm
						{
							OFFSET -4.52172 -0.00000 -0.00000
							CHANNELS 3 Zrotation Yrotation Xrotation
							JOINT RightHand
							{
								OFFSET -2.89140 -0.00000 0.00000
								CHANNELS 3 Zrotation Yrotation Xrotation
								JOINT RightFingerBase
								{
									OFFSET 0 0 0
									CHANNELS 3 Zrotation Yrotation Xrotation
									JOINT RightHandIndex1
									{
										OFFSET -0.68054 -0.00000 0.00000
										CHANNELS 3 Zrotation Yrotation Xrotation
										End Site
										{
											OFFSET -0.54867 -0.00000 0.00000
										}
									}
								}
								JOINT RThumb
								{
									OFFSET 0 0 0
									CHANNELS 3 Zrotation Yrotation Xrotation
									End Site
									{
										OFFSET -0.55705 -0.00000 0.55705
									}
								}
							}
						}
					}
				}
			}
		}
	}
}
MOTION
Frames: 9
Frame Time: 0.105263
0.00 0.00 0.00 0 0 0 0 0 0 -21 0 0 0 0 0 0 0 0 0 0 0 0 0 0 21 0 0 0 0 0 0 0 0 0 0 0 0 0 0 0 0 0 0 0 0 0 0 -16 0 0 21 0 0 11 0 0 0 -8 0 0 0 0 0 0 0 0 0 0 0 0 0 0 0 0 0 0 0 0 8 0 0 0 0 0 0 0 0 0 0 0 0 0 0 0 0 0
0.00 0.00 0.00 -178.1580 -2.9721 188.6960 0.0000 0.0000 0.0000 -14.5116 -19.5468 -21.6010 3.6827 11.7257 34.7684 1.4779 6.4822 -26.1113 8.5519 -16.5105 -54.5270 0.0000 0.0000 0.0000 22.9652 8.8830 -18.5035 -2.9025 -10.5355 30.7289 -0.0573 -19.8682 -28.5162 -0.0318 -1.1505 3.1630 2.4981 2.1636 15.6890 -0.1641 3.3726 -2.7640 -2.4503 1.4074 -11.7288 -9.2346 -4.8394 -6.4189 10.6653 -6.2033 1.2327 4.4653 -2.9596 2.0427 0.0000 -0.0000 0.0000 -70.8005 22.1367 4.1248 20.9912 -31.8181 -6.0453 -0.0000 -0.0000 6.0139 2.1816 -30.7417 -1.1156 -7.1250 0.0000 -0.0000 -16.5755 0.3143 17.2225 0.0000 -0.0000 0.0000 67.9388 -1.7079 42.4418 -25.1452 36.3520 -8.3758 0.0000 0.0000 14.7601 8.3787 -56.1523 -6.9741 7.1250 -0.0000 -0.0000 85.0838 -69.1881 -62.5015
0.00 0.00 0.00 -178.1400 -2.0987 195.6330 0.0000 0.0000 0.0000 -10.7939 -17.7375 -39.8833 7.2542 15.5422 49.8292 2.4804 1.9417 -30.5283 8.5496 -16.5090 -54.5191 0.0000 0.0000 0.0000 20.9483 9.8401 -37.3393 -6.8526 -15.2065 48.3145 -1.6686 -12.8945 -31.9844 -0.0377 1.2534 -3.4464 3.5673 3.5711 18.7308 -0.7863 5.4535 -1.9653 -4.4560 2.2462 -12.3135 -10.7088 -6.2001 -7.0850 13.2906 -7.7595 -9.1312 5.6026 -4.0544 -0.5546 -0.0000 -0.0000 0.0000 -67.5593 14.6871 -15.1845 16.5817 -26.3030 -3.9002 -0.0000 -0.0000 18.9558 -4.2436 -26.1985 1.8762 -7.1250 0.0000 -0.0000 -20.2818 5.0230 19.7354 -0.0000 -0.0000 0.0000 60.5696 3.2904 46.6122 -28.5666 39.6327 -10.4832 0.0000 0.0000 8.2085 7.4912 -55.2804 -6.1687 7.1250 -0.0000 -0.0000 82.4675 -69.3300 -60.0206
0.00 0.00 0.00 -178.3850 1.6905 197.2980 0.0000 0.0000 0.0000 -10.2702 -13.1648 -50.6333 11.5314 18.1855 64.4955 3.5482 -1.5701 -35.3430 8.2151 -16.2752 -53.3339 0.0000 0.0000 0.0000 19.3300 10.6025 -49.1891 -11.8752 -18.3374 65.5927 -2.5056 -9.3640 -34.3609 -0.1430 2.4373 -6.7160 2.7377 4.1897 21.1112 -0.8997 6.2358 -1.2446 -4.5322 2.6860 -12.8603 -9.7315 -5.3952 -7.2637 12.2173 -6.9788 -13.6345 5.2905 -3.9263 -2.0414 0.0000 0.0000 0.0000 -67.5658 -4.6371 -19.9723 13.7885 -22.4315 -2.7469 -0.0000 -0.0000 49.2036 -7.2652 -26.3438 3.2379 -7.1250 0.0000 -0.0000 -21.9681 4.9707 21.6775 0.0000 0.0000 0.0000 60.6869 5.6840 40.5322 -25.6799 36.8909 -8.6948 0.0000 0.0000 9.3752 -8.3667 -50.7455 6.4972 7.1250 -0.0000 -0.0000 61.0346 -73.5413 -45.1827
0.00 0.00 0.00 -176.0120 19.2790 196.5760 0.0000 0.0000 0.0000 -13.4865 -4.6806 -47.5478 13.2498 18.8705 69.8997 3.5774 5.9296 -38.1242 7.4232 -15.6781 -50.4572 0.0000 0.0000 0.0000 17.1123 19.1932 -47.2560 -12.6876 -18.6665 68.1525 -1.9453 -4.1298 -28.0871 -0.2902 3.4641 -9.5737 -0.0565 -0.7852 17.7630 -0.0175 -1.0346 -1.8621 0.2981 -0.4692 -12.0872 -8.7083 -4.3622 -10.4086 16.0370 -2.6074 -12.3610 6.3258 -0.5549 -1.4715 0.0000 -0.0000 0.0000 -83.4098 -51.0795 36.6369 15.6537 -25.0488 -3.4980 -0.0000 -0.0000 39.3730 5.9736 -36.8464 -3.5906 -7.1250 0.0000 -0.0000 -14.7653 -5.9437 16.7550 0.0000 -0.0000 0.0000 61.0677 -22.0118 51.1899 -45.2493 50.8900 -22.4321 0.0000 -0.0000 -0.3833 -6.1897 -52.2406 4.9007 7.1250 -0.0000 -0.0000 67.0474 -73.3119 -50.2353
0.00 0.00 0.00 -175.4960 31.8280 194.7960 0.0000 0.0000 0.0000 -17.3692 1.9850 -38.0984 10.1234 17.4786 59.8998 2.1812 11.2649 -33.7790 7.5334 -15.7651 -50.8642 0.0000 0.0000 0.0000 18.0376 21.2858 -37.2198 -8.8446 -16.7066 55.5510 -1.2795 -0.5267 -21.5837 -0.2575 3.2645 -9.0160 -0.5144 -2.3380 14.6627 -0.4417 -3.2683 -2.6543 0.5936 -1.5306 -11.1556 -12.1394 -6.7175 -6.7113 19.7971 -6.2659 -11.6758 8.0355 -2.6491 -1.0815 -0.0000 0.0000 0.0000 -79.5240 -51.7711 39.5723 16.1763 -25.7591 -3.7222 -0.0000 -0.0000 34.1003 4.0979 -39.2908 -2.5977 -7.1250 0.0000 -0.0000 -15.8955 -8.0672 18.6519 -0.0000 0.0000 0.0000 50.1852 -30.3459 66.1489 -74.4030 59.0606 -46.5352 0.0000 -0.0000 -0.0580 -0.0760 -51.1415 0.0592 7.1250 -0.0000 -0.0000 67.5296 -70.7332 -47.6668
0.00 0.00 0.00 -175.5870 50.2795 192.3190 0.0000 0.0000 0.0000 -22.2588 8.7273 -25.7030 5.9806 14.4096 44.9040 -0.9657 20.3743 -19.5729 8.0642 -16.1663 -52.7936 0.0000 0.0000 0.0000 18.4383 21.3096 -24.1677 -3.9350 -12.0734 35.9921 0.0420 6.9940 -3.8177 -0.0043 -0.4255 1.1691 -2.2097 -3.0687 12.8088 -0.0199 -4.5040 -4.4717 2.2439 -1.9557 -11.9297 -15.6230 -10.2069 -4.9699 20.2108 -11.9698 -8.8045 8.3193 -5.6177 0.5958 -0.0000 0.0000 0.0000 -73.4577 -41.8339 38.0002 16.9060 -26.7337 -4.0450 -0.0000 -0.0000 37.6137 -2.2761 -40.1164 1.4671 -7.1250 0.0000 -0.0000 -19.1002 -8.2508 22.8607 -0.0000 0.0000 0.0000 39.5206 -31.5973 76.6687 -97.8695 59.7647 -66.8098 0.0000 -0.0000 -0.3622 5.4611 -46.3843 -3.9594 7.1250 -0.0000 -0.0000 60.7461 -66.7166 -37.0704
0.00 0.00 0.00 -173.8410 62.2065 191.8090 0.0000 0.0000 0.0000 -23.5096 7.2810 -16.4846 3.8682 11.9830 35.6718 -2.8331 28.3496 -7.9717 6.8146 -15.1737 -48.1695 0.0000 0.0000 0.0000 19.3558 21.3207 -14.4545 -1.2935 -7.2060 20.3271 -0.7468 1.9864 17.1594 -1.0339 -6.4675 18.1471 -1.3865 -3.5401 11.3817 0.5597 -4.9041 -5.0573 2.4230 -2.1838 -11.7324 -17.1818 -12.5487 -3.2348 19.8348 -15.6952 -7.6588 8.1031 -7.5709 1.3604 0.0000 0.0000 0.0000 -73.6904 -32.5641 35.9522 17.0231 -26.8883 -4.0978 -0.0000 -0.0000 39.2060 -1.6029 -37.8453 0.9836 -7.1250 0.0000 -0.0000 -18.7044 -6.1466 21.7338 0.0000 0.0000 0.0000 36.7425 -28.6563 79.0538 -103.4755 59.3026 -71.6428 0.0000 -0.0000 -1.8969 6.5638 -45.7549 -4.7120 7.1250 -0.0000 -0.0000 60.4320 -66.0431 -35.9884
0.00 0.00 0.00 -160.1520 79.3081 203.3910 0.0000 0.0000 0.0000 -23.6285 -2.3501 -5.7257 2.4498 9.7461 28.1585 -2.7856 35.7628 10.7711 5.8464 -14.2779 -44.3623 0.0000 0.0000 0.0000 22.0027 24.5730 -2.3375 -0.0345 -1.1985 3.2953 0.2899 -26.0690 16.5314 -0.4713 -4.4029 12.2131 -1.0130 -3.7743 9.8006 2.2596 -4.9576 -5.1233 3.9317 -2.1903 -10.7311 -19.9126 -16.0886 -2.2655 21.5006 -21.0073 -5.9837 8.2203 -10.2289 3.1169 -0.0000 0.0000 0.0000 -73.6225 -19.5614 40.0766 17.9093 -28.0408 -4.5065 -0.0000 -0.0000 34.9215 -3.5289 -38.3200 2.1898 -7.1250 0.0000 -0.0000 -19.6763 -6.4632 23.1000 -0.0000 0.0000 0.0000 38.1370 -18.5136 79.2863 -102.8141 59.3704 -71.0739 0.0000 -0.0000 -3.4883 8.1639 -47.7176 -6.0585 7.1250 -0.0000 -0.0000 65.4907 -66.5298 -40.6898
